<svg xmlns="http://www.w3.org/2000/svg" width="121" height="17" viewBox="0 0 121 17" fill="none">   
<path fill-rule="evenodd" clip-rule="evenodd" d="M64 7.5C64 10.5376 61.5376 13 58.5 13C55.4624 13 53 10.5376 53 7.5C53 4.46243 55.4624 2 58.5 2C61.5376 2 64 4.46243 64 7.5ZM62.8845 12.2986C61.7286 13.3554 60.1896 14 58.5 14C54.9101 14 52 11.0899 52 7.5C52 3.91015 54.9101 1 58.5 1C62.0899 1 65 3.91015 65 7.5C65 9.04017 64.4643 10.4552 63.5691 11.569L67 14.9999L66.2929 15.707L62.8845 12.2986Z" fill="#1C2A39"/>   
</svg>