<svg xmlns="http://www.w3.org/2000/svg" width="14" height="17" viewBox="0 0 14 17" fill="none">
    <mask id="path-4-inside-2_1_421" fill="white">
    <path fill-rule="evenodd" clip-rule="evenodd" d="M9 5C9 6.65685 7.65685 8 6 8C4.34315 8 3 6.65685 3 5C3 3.34315 4.34315 2 6 2C7.65685 2 9 3.34315 9 5ZM10 5C10 7.20914 8.20914 9 6 9C3.79086 9 2 7.20914 2 5C2 2.79086 3.79086 1 6 1C8.20914 1 10 2.79086 10 5ZM1 14C1 12.3431 2.34315 11 4 11H8C9.65685 11 11 12.3431 11 14V15H1V14ZM0 14C0 11.7909 1.79086 10 4 10H8C10.2091 10 12 11.7909 12 14V16H0V14Z"/>
    </mask>
    <path fill-rule="evenodd" clip-rule="evenodd" d="M9 5C9 6.65685 7.65685 8 6 8C4.34315 8 3 6.65685 3 5C3 3.34315 4.34315 2 6 2C7.65685 2 9 3.34315 9 5ZM10 5C10 7.20914 8.20914 9 6 9C3.79086 9 2 7.20914 2 5C2 2.79086 3.79086 1 6 1C8.20914 1 10 2.79086 10 5ZM1 14C1 12.3431 2.34315 11 4 11H8C9.65685 11 11 12.3431 11 14V15H1V14ZM0 14C0 11.7909 1.79086 10 4 10H8C10.2091 10 12 11.7909 12 14V16H0V14Z" fill="#1C2A39"/>
    <path d="M11 15V16H12V15H11ZM1 15H0V16H1V15ZM12 16V17H13V16H12ZM0 16H-1V17H0V16ZM6 9C8.20914 9 10 7.20914 10 5H8C8 6.10457 7.10457 7 6 7V9ZM2 5C2 7.20914 3.79086 9 6 9V7C4.89543 7 4 6.10457 4 5H2ZM6 1C3.79086 1 2 2.79086 2 5H4C4 3.89543 4.89543 3 6 3V1ZM10 5C10 2.79086 8.20914 1 6 1V3C7.10457 3 8 3.89543 8 5H10ZM6 10C8.76142 10 11 7.76142 11 5H9C9 6.65685 7.65685 8 6 8V10ZM1 5C1 7.76142 3.23858 10 6 10V8C4.34315 8 3 6.65685 3 5H1ZM6 0C3.23858 0 1 2.23858 1 5H3C3 3.34315 4.34315 2 6 2V0ZM11 5C11 2.23858 8.76142 0 6 0V2C7.65685 2 9 3.34315 9 5H11ZM4 10C1.79086 10 0 11.7909 0 14H2C2 12.8954 2.89543 12 4 12V10ZM8 10H4V12H8V10ZM12 14C12 11.7909 10.2091 10 8 10V12C9.10457 12 10 12.8954 10 14H12ZM12 15V14H10V15H12ZM1 16H11V14H1V16ZM0 14V15H2V14H0ZM4 9C1.23858 9 -1 11.2386 -1 14H1C1 12.3431 2.34315 11 4 11V9ZM8 9H4V11H8V9ZM13 14C13 11.2386 10.7614 9 8 9V11C9.65685 11 11 12.3431 11 14H13ZM13 16V14H11V16H13ZM0 17H12V15H0V17ZM-1 14V16H1V14H-1Z" fill="#1C2A39" mask="url(#path-4-inside-2_1_421)"/>
</svg>